<?xml version="1.0" standalone="no"?>
<!DOCTYPE svg PUBLIC "-//W3C//DTD SVG 20010904//EN"
 "http://www.w3.org/TR/2001/REC-SVG-20010904/DTD/svg10.dtd">
<svg version="1.0" xmlns="http://www.w3.org/2000/svg"
 width="290.000000pt" height="290.000000pt" viewBox="0 0 290.000000 290.000000"
 preserveAspectRatio="xMidYMid meet">
<metadata>
Created by potrace 1.14, written by Peter Selinger 2001-2017
</metadata>
<g transform="translate(0.000000,290.000000) scale(0.100000,-0.100000)"
fill="#000000" stroke="none">
<path d="M969 2896 c-3 -3 -66 -8 -140 -11 -147 -5 -225 -23 -332 -76 -187
-92 -320 -227 -411 -419 -75 -157 -86 -273 -86 -936 0 -690 10 -796 92 -959
72 -143 163 -246 293 -335 91 -61 133 -82 229 -114 129 -42 259 -48 926 -44
l605 4 96 26 c168 46 296 124 421 257 128 136 199 286 223 470 20 149 21 1230
1 1376 -31 230 -139 426 -310 561 -98 78 -206 136 -306 163 -71 20 -107 22
-625 26 -302 2 -577 7 -610 11 -33 3 -63 3 -66 0z m459 -482 c48 -93 51 -103
20 -74 -12 11 -29 18 -39 15 -19 -6 -28 14 -54 125 -22 94 -19 113 8 60 13
-25 42 -82 65 -126z m17 -101 c11 -13 26 -23 32 -23 9 0 78 -128 237 -442 27
-54 47 -101 43 -104 -3 -3 -35 11 -71 31 -36 20 -71 35 -77 33 -14 -5 85 -83
149 -118 41 -23 51 -37 98 -130 44 -88 49 -106 36 -111 -9 -3 -25 3 -36 13
-21 19 -47 21 -53 2 -2 -6 10 -25 27 -42 35 -37 38 -52 9 -52 -11 0 -17 -4
-14 -10 3 -5 -1 -10 -9 -10 -9 0 -16 8 -16 18 0 30 -28 59 -65 66 -19 4 -35
11 -35 17 0 6 4 8 9 4 5 -3 12 -1 16 5 3 5 -3 10 -13 10 -44 0 -92 31 -122 78
-16 26 -28 53 -25 60 4 12 -39 199 -90 387 -9 33 -22 89 -30 125 -7 36 -20 91
-29 123 -27 97 -17 120 29 70z m84 -755 c17 -23 31 -46 31 -52 0 -5 8 -18 18
-29 17 -19 16 -19 -22 -3 -37 15 -41 15 -81 -4 -23 -11 -47 -20 -53 -20 -7 0
-12 -5 -12 -11 0 -6 9 -9 20 -6 25 6 26 -8 3 -22 -17 -10 -17 -10 0 -11 10 0
16 -4 13 -9 -4 -5 -1 -11 6 -13 9 -3 8 -9 -5 -22 -16 -17 -17 -16 -17 8 0 43
-15 29 -16 -15 -2 -62 -19 -66 -19 -3 0 30 5 54 10 54 14 1 -63 68 -98 87 -25
12 -31 13 -38 1 -14 -21 -11 -33 21 -76 17 -23 28 -42 25 -42 -12 0 -48 38
-62 65 -10 19 -18 25 -21 17 -3 -9 -8 -6 -16 10 -13 26 -55 37 -67 17 -6 -10
-21 -7 -68 13 -63 28 -79 27 -138 -3 -63 -32 -84 -26 -115 34 -16 29 -28 58
-28 65 0 9 79 12 349 12 l349 0 31 -42z m28 -134 c-3 -4 -2 -15 4 -26 6 -11 8
-27 4 -35 -5 -13 -12 -10 -40 17 -19 19 -35 36 -35 39 0 4 17 7 37 9 20 1 34
-1 30 -4z m123 -11 c0 -8 -4 -12 -10 -8 -5 3 -18 0 -28 -6 -14 -9 -24 -9 -38
-1 -11 7 -13 12 -6 12 7 0 11 4 8 9 -3 4 12 8 34 8 28 0 40 -4 40 -14z m-704
-33 c23 0 36 -7 49 -26 l17 -26 -44 7 c-23 4 -51 8 -61 9 -17 1 -37 22 -37 40
0 4 10 6 23 2 12 -3 36 -6 53 -6z m752 -3 c6 -6 12 -19 14 -27 2 -8 10 -20 18
-27 12 -10 9 -13 -20 -13 -19 -1 -29 -4 -21 -7 7 -3 22 -14 32 -24 22 -22 39
-25 39 -6 0 8 11 20 25 27 14 7 25 17 25 21 0 5 7 6 15 3 12 -5 14 -2 8 12 -6
17 -5 17 10 6 9 -8 17 -28 19 -45 3 -27 7 -32 32 -34 16 -1 32 -6 35 -10 3 -4
12 -9 19 -10 15 -4 16 21 2 48 -6 10 -9 19 -6 19 3 0 26 -42 51 -92 26 -51 51
-97 56 -103 5 -5 9 -15 9 -22 0 -11 -60 -13 -327 -10 -181 2 -344 8 -364 12
-23 4 -39 3 -43 -4 -4 -6 -27 -11 -51 -11 -38 0 -44 3 -47 23 -2 12 -8 22 -15
22 -6 0 -15 3 -19 8 -12 12 -24 8 -24 -8 0 -8 5 -15 10 -15 6 0 5 -6 -2 -14
-7 -7 -19 -11 -26 -9 -6 3 -23 -2 -37 -11 -14 -9 -36 -21 -50 -26 -23 -9 -27
-6 -45 30 -20 39 -16 52 8 28 19 -19 26 0 9 26 -9 14 -26 41 -37 62 l-21 36
60 -4 c34 -2 61 -3 61 -1 0 2 -15 9 -32 17 -18 8 -26 15 -18 15 8 1 27 -5 42
-13 25 -13 30 -12 52 5 13 10 35 21 47 23 22 3 24 8 22 50 -2 25 -1 46 1 46
12 0 56 -96 61 -135 l7 -44 44 3 c54 3 62 10 39 36 -17 19 -17 20 6 39 26 22
54 27 64 11 11 -17 22 -11 21 13 -1 32 49 35 94 4 51 -34 72 -40 68 -20 -2 9
-17 21 -35 27 -63 21 -67 59 -8 64 15 1 34 6 43 12 24 13 68 12 80 -3z m97
-47 c3 -5 -1 -10 -9 -10 -9 0 -16 5 -16 10 0 6 4 10 9 10 6 0 13 -4 16 -10z
m-508 -301 c15 -31 108 -397 102 -402 -2 -1 -36 -1 -75 1 l-72 4 -57 116 c-32
64 -64 129 -71 143 -12 25 -12 26 12 23 13 -1 22 2 18 7 -3 5 -16 9 -30 9 -17
0 -27 8 -34 26 -14 37 -13 39 12 18 12 -10 18 -13 14 -6 -5 8 3 12 28 13 20 1
40 2 45 3 18 2 61 46 61 62 0 24 33 13 47 -17z m61 -437 c15 -10 34 -21 44
-25 9 -3 23 -29 32 -60 19 -65 19 -70 6 -62 -5 3 -24 -2 -41 -12 -30 -18 -30
-18 -49 7 -11 14 -20 30 -20 36 0 6 -11 33 -25 60 -14 27 -23 55 -20 62 7 18
43 15 73 -6z m141 -348 c13 -53 14 -84 2 -84 -11 0 -69 104 -78 138 -5 23 -5
23 30 6 28 -14 37 -25 46 -60z"/>
<path d="M1663 1603 c9 -2 23 -2 30 0 6 3 -1 5 -18 5 -16 0 -22 -2 -12 -5z"/>
<path d="M1710 1566 c0 -14 73 -76 90 -76 23 0 24 4 10 31 -8 14 -7 19 2 19
23 1 -53 30 -78 30 -13 0 -24 -2 -24 -4z"/>
<path d="M1450 1520 c0 -5 5 -10 11 -10 5 0 7 5 4 10 -3 6 -8 10 -11 10 -2 0
-4 -4 -4 -10z"/>
<path d="M1473 1215 c-3 -9 -3 -18 -1 -21 3 -3 8 4 11 16 6 23 -1 27 -10 5z"/>
<path d="M1240 1194 c0 -8 5 -12 10 -9 6 4 8 11 5 16 -9 14 -15 11 -15 -7z"/>
<path d="M1518 1188 c-5 -15 29 -51 36 -39 3 4 2 17 -1 29 -6 24 -28 30 -35
10z"/>
<path d="M1623 1142 c-39 -4 -42 -13 -8 -29 14 -6 25 -7 25 -2 0 5 10 13 22
18 28 10 5 18 -39 13z"/>
</g>
</svg>
